<?xml version="1.0" encoding="utf-8"?>
<!-- Generator: Adobe Illustrator 24.3.2, SVG Export Plug-In . SVG Version: 6.00 Build 0)  -->
<svg version="1.1" xmlns="http://www.w3.org/2000/svg" xmlns:xlink="http://www.w3.org/1999/xlink" x="0px" y="0px"
	 viewBox="0 0 64 64" enable-background="new 0 0 64 64" xml:space="preserve">
<g id="Icon">
	<path fill="none" stroke="#FFFFFF" stroke-width="2" stroke-linecap="round" stroke-linejoin="round" stroke-miterlimit="10" d="
		M13.6312,44.1117C11.3361,40.638,10,36.475,10,32c0-12.1503,9.8497-22,22-22s22,9.8497,22,22s-9.8497,22-22,22
		c-4.4267,0-8.5481-1.3074-11.999-3.5572 M13.6313,44.1116L10,54l10.0011-3.5573 M47.0001,34.9999l-4.2838-4l-4.2838,4l-4.2826-4
		l-4.2832,4l-4.2869-4l-4.2899,4l-4.2899-4"/>
</g>
<g id="Padding" display="none">
	<g display="inline">
		<g opacity="0.4">
			<path fill="#AC4090" d="M0,0v64h64V0H0z M60,60H4V4h56V60z"/>
		</g>
	</g>
</g>
<g id="Guides" display="none">
</g>
</svg>
