<svg width="164" height="43" viewBox="0 0 164 43" fill="none" xmlns="http://www.w3.org/2000/svg">
<path d="M25.5358 0.00218083C23.0525 -0.0482644 20.6276 0.777766 18.6673 2.34196C16.7069 3.90616 15.3301 6.11357 14.7673 8.59458C14.4629 10.0837 14.3218 11.6029 14.3464 13.1242V16.9712H22.379V8.23505H28.6927V22.4359C31.0091 21.7353 33.0426 20.2857 34.4902 18.3032C35.9377 16.3208 36.7217 13.9116 36.7253 11.4349C36.7408 9.92548 36.4617 8.42816 35.9044 7.03109C35.347 5.63401 34.5227 4.36543 33.48 3.30006C32.4373 2.23468 31.1973 1.39405 29.8329 0.827677C28.4686 0.261299 27.0076 -0.0193764 25.5358 0.00218083ZM11.09 39.5486C13.5853 39.6015 16.0232 38.7783 17.9998 37.2157C19.9764 35.653 21.3729 33.4445 21.958 30.9563C22.2623 29.4673 22.4035 27.948 22.3789 26.4267V22.5796H14.3463V31.3159H8.03263V17.115C5.71622 17.8156 3.68263 19.2652 2.23507 21.2477C0.78751 23.2303 0.00352369 25.6395 0 28.1162C0 34.8233 4.54633 39.5486 11.09 39.5486Z" fill="url(#paint0_linear_2106_5524)"/>
<path d="M48.0261 0.370185H53.1923V7.30031H60.0173V0.370185H65.183V18.8858H60.0173V11.85H53.1923V18.8858H48.0261V0.370185ZM69.6573 9.68084V9.62819C69.6573 4.31152 73.8737 0 79.6258 0C85.3778 0 89.5412 4.25831 89.5412 9.57514V9.62819C89.5412 14.9445 85.3244 19.2559 79.5723 19.2559C73.8203 19.2559 69.6573 14.9975 69.6573 9.68084ZM84.2687 9.68084V9.62819C84.2687 6.95648 82.4219 4.62906 79.5723 4.62906C76.7498 4.62906 74.9563 6.90338 74.9563 9.57514V9.62819C74.9563 12.2995 76.8032 14.6273 79.6258 14.6273C82.4748 14.6274 84.2687 12.3525 84.2687 9.68084ZM94.2522 0.370185H99.4183V14.3892H107.96V18.8858H94.2522V0.370185ZM110.555 9.68084V9.62819C110.555 4.23213 114.736 0 120.381 0C124.189 0 126.639 1.58717 128.29 3.862L124.402 6.85079C123.337 5.52811 122.112 4.68165 120.328 4.68165C117.718 4.68165 115.881 6.87708 115.881 9.57514V9.62819C115.881 12.4049 117.718 14.5743 120.328 14.5743C122.271 14.5743 123.417 13.6748 124.535 12.3263L128.423 15.0769C126.666 17.4837 124.296 19.256 120.168 19.256C118.902 19.2803 117.645 19.0495 116.47 18.5773C115.295 18.1052 114.227 17.4014 113.33 16.5079C112.433 15.6144 111.725 14.5495 111.248 13.3766C110.772 12.2037 110.536 10.9468 110.555 9.68084ZM133.071 0.370185H138.263V18.8858H133.071V0.370185ZM143.605 0.370185H149.064L153.803 7.53845L158.541 0.370185H164V18.8858H158.861V8.0594L153.803 15.3072H153.696L148.664 8.11245V18.8858H143.605L143.605 0.370185Z" fill="white"/>
<path d="M118.549 39.047C118.284 39.1132 117.993 39.1463 117.675 39.1463C116.469 39.1463 115.522 38.8019 114.833 38.113C114.158 37.4108 113.82 36.3709 113.82 34.9931V29.9854H112.031V28.5546H113.82V25.2559H115.568V28.5546H118.549V29.9854H115.568V34.8937C115.568 35.8211 115.767 36.51 116.165 36.9604C116.575 37.4108 117.145 37.6361 117.874 37.6361C118.125 37.6361 118.351 37.6162 118.549 37.5764V39.047Z" fill="white"/>
<path d="M110.644 33.7611C110.644 34.8342 110.418 35.7814 109.968 36.6028C109.518 37.4241 108.888 38.06 108.08 38.5105C107.272 38.9609 106.358 39.1861 105.338 39.1861C104.304 39.1861 103.384 38.9609 102.576 38.5105C101.781 38.06 101.158 37.4241 100.708 36.6028C100.257 35.7681 100.032 34.8143 100.032 33.7412C100.032 32.6681 100.257 31.7209 100.708 30.8995C101.158 30.0781 101.781 29.4422 102.576 28.9918C103.384 28.5414 104.304 28.3162 105.338 28.3162C106.358 28.3162 107.272 28.5414 108.08 28.9918C108.888 29.4422 109.518 30.0848 109.968 30.9194C110.418 31.7408 110.644 32.688 110.644 33.7611ZM108.855 33.7213C108.855 32.9529 108.703 32.2773 108.398 31.6944C108.107 31.0982 107.689 30.6412 107.146 30.3232C106.616 29.992 106.013 29.8264 105.338 29.8264C104.662 29.8264 104.059 29.992 103.529 30.3232C103 30.6412 102.582 31.0982 102.278 31.6944C101.986 32.2773 101.84 32.9596 101.84 33.7412C101.84 34.5096 101.986 35.1918 102.278 35.788C102.582 36.3709 103 36.828 103.529 37.1592C104.059 37.4904 104.662 37.656 105.338 37.656C106.013 37.656 106.616 37.4904 107.146 37.1592C107.689 36.828 108.107 36.3643 108.398 35.7681C108.703 35.172 108.855 34.4897 108.855 33.7213Z" fill="white"/>
<path d="M96.6357 35.8079C96.6357 37.0399 97.1325 37.656 98.1261 37.656C98.3381 37.656 98.5235 37.6361 98.6825 37.5964V39.047C98.4705 39.1 98.2122 39.1265 97.9075 39.1265C97.0066 39.1265 96.278 38.8549 95.7216 38.3117C95.1652 37.7553 94.887 36.934 94.887 35.8476V24.2424H96.6357V35.8079Z" fill="white"/>
<path d="M90.4836 26.826C90.1391 26.826 89.8543 26.7134 89.6291 26.4882C89.4039 26.2497 89.2913 25.9582 89.2913 25.6138C89.2913 25.2694 89.4039 24.9845 89.6291 24.7593C89.8543 24.5208 90.1391 24.4016 90.4836 24.4016C90.828 24.4016 91.1129 24.5208 91.3381 24.7593C91.5633 24.9845 91.6759 25.2694 91.6759 25.6138C91.6759 25.9582 91.5633 26.2497 91.3381 26.4882C91.1129 26.7134 90.828 26.826 90.4836 26.826ZM91.3579 38.9479H89.6092V28.5548H91.3579V38.9479Z" fill="white"/>
<path d="M86.7679 33.6617C86.7679 34.748 86.5625 35.7151 86.1518 36.563C85.7544 37.3976 85.1914 38.0468 84.4627 38.5105C83.7341 38.9609 82.9061 39.1861 81.9787 39.1861C81.0514 39.1861 80.2631 39.0139 79.614 38.6694C78.9648 38.325 78.4747 37.8216 78.1435 37.1592H78.1037V42.7233H76.355V28.5546H77.9646V30.661H78.0043C78.3091 29.8927 78.8059 29.3098 79.4947 28.9123C80.1836 28.5149 81.0315 28.3162 82.0383 28.3162C82.9525 28.3162 83.7672 28.5414 84.4826 28.9918C85.2112 29.4422 85.7743 30.0715 86.1717 30.8796C86.5691 31.6878 86.7679 32.6151 86.7679 33.6617ZM84.9595 33.7412C84.9595 32.5489 84.6548 31.6017 84.0454 30.8995C83.436 30.1841 82.6146 29.8264 81.5813 29.8264C80.5347 29.8264 79.6935 30.1709 79.0576 30.8598C78.4217 31.5487 78.1037 32.5091 78.1037 33.7412C78.1037 34.9733 78.415 35.9337 79.0377 36.6226C79.6736 37.3115 80.5215 37.656 81.5813 37.656C82.6146 37.656 83.436 37.3049 84.0454 36.6028C84.6548 35.8874 84.9595 34.9335 84.9595 33.7412Z" fill="white"/>
<path d="M73.5391 33.7611C73.5391 34.8342 73.3139 35.7814 72.8635 36.6028C72.413 37.4241 71.7837 38.06 70.9756 38.5105C70.1675 38.9609 69.2534 39.1861 68.2333 39.1861C67.2 39.1861 66.2792 38.9609 65.4711 38.5105C64.6762 38.06 64.0536 37.4241 63.6031 36.6028C63.1527 35.7681 62.9275 34.8143 62.9275 33.7412C62.9275 32.6681 63.1527 31.7209 63.6031 30.8995C64.0536 30.0781 64.6762 29.4422 65.4711 28.9918C66.2792 28.5414 67.2 28.3162 68.2333 28.3162C69.2534 28.3162 70.1675 28.5414 70.9756 28.9918C71.7837 29.4422 72.413 30.0848 72.8635 30.9194C73.3139 31.7408 73.5391 32.688 73.5391 33.7611ZM71.7506 33.7213C71.7506 32.9529 71.5983 32.2773 71.2936 31.6944C71.0021 31.0982 70.5848 30.6412 70.0416 30.3232C69.5117 29.992 68.9089 29.8264 68.2333 29.8264C67.5576 29.8264 66.9549 29.992 66.4249 30.3232C65.895 30.6412 65.4777 31.0982 65.173 31.6944C64.8816 32.2773 64.7358 32.9596 64.7358 33.7412C64.7358 34.5096 64.8816 35.1918 65.173 35.788C65.4777 36.3709 65.895 36.828 66.4249 37.1592C66.9549 37.4904 67.5576 37.656 68.2333 37.656C68.9089 37.656 69.5117 37.4904 70.0416 37.1592C70.5848 36.828 71.0021 36.3643 71.2936 35.7681C71.5983 35.172 71.7506 34.4897 71.7506 33.7213Z" fill="white"/>
<path d="M59.3134 28.8132C58.5317 26.985 57.1275 26.0709 55.1005 26.0709C54.0804 26.0709 53.1862 26.3027 52.4178 26.7664C51.6494 27.2168 51.0533 27.8659 50.6293 28.7138C50.2054 29.5617 49.9934 30.5553 49.9934 31.6946C49.9934 32.8737 50.1988 33.9004 50.6095 34.7748C51.0334 35.6359 51.6362 36.2983 52.4178 36.7619C53.1994 37.2256 54.1202 37.4575 55.18 37.4575C56.2796 37.4575 57.2003 37.219 57.9422 36.7421C58.6841 36.2519 59.2471 35.5431 59.6313 34.6158L61.1615 35.4504C60.711 36.6692 59.9758 37.5966 58.9557 38.2325C57.9488 38.8684 56.6704 39.1863 55.1204 39.1863C53.6896 39.1863 52.4377 38.8816 51.3646 38.2722C50.3048 37.6628 49.4834 36.7951 48.9005 35.669C48.3176 34.5429 48.0261 33.2247 48.0261 31.7145C48.0261 30.2572 48.3176 28.9788 48.9005 27.8792C49.4966 26.7664 50.3246 25.9119 51.3845 25.3157C52.4576 24.7063 53.683 24.4016 55.0608 24.4016C56.5181 24.4016 57.7435 24.7196 58.7371 25.3555C59.7307 25.9781 60.4527 26.879 60.9031 28.058L59.3134 28.8132Z" fill="white"/>
<defs>
<linearGradient id="paint0_linear_2106_5524" x1="-1.06209" y1="28.2147" x2="37.9799" y2="12.0551" gradientUnits="userSpaceOnUse">
<stop offset="0.15" stop-color="#94C12E"/>
<stop offset="0.1862" stop-color="#8DC137"/>
<stop offset="0.2452" stop-color="#7BC04F"/>
<stop offset="0.3198" stop-color="#5EBF77"/>
<stop offset="0.4069" stop-color="#35BDAE"/>
<stop offset="0.5" stop-color="#04BBF1"/>
<stop offset="0.5855" stop-color="#05B7ED"/>
<stop offset="0.6742" stop-color="#07ACE0"/>
<stop offset="0.7642" stop-color="#0B98CC"/>
<stop offset="0.8553" stop-color="#117DAF"/>
<stop offset="0.9462" stop-color="#185B8A"/>
<stop offset="1" stop-color="#1D4370"/>
</linearGradient>
</defs>
</svg>
